<svg width="178" height="123" viewBox="0 0 178 123" fill="none" xmlns="http://www.w3.org/2000/svg">
<path d="M177.542 58.0313C177.542 26.1563 137.943 0.177124 89.0937 0.177124C40.2448 0.177124 0.645793 26.1563 0.645793 58.0313C0.645793 58.8542 0.635376 61.125 0.635376 61.4167C0.635376 95.2292 35.2448 122.615 89.0833 122.615C143.245 122.615 177.542 95.2344 177.542 61.4219C177.542 60.2396 177.542 59.5625 177.542 58.0313Z" fill="#253E8B"/>
<path d="M174.156 58C174.156 88.0469 136.078 112.406 89.1094 112.406C42.1406 112.406 4.0625 88.0469 4.0625 58C4.0625 27.9531 42.1406 3.59375 89.1094 3.59375C136.078 3.59375 174.156 27.9531 174.156 58Z" fill="#00AEEF"/>
<path d="M60.8698 40.8386C60.8229 40.9219 59.9791 41.8021 60.526 42.5053C61.8698 44.2188 66.0156 45.2032 70.2083 44.2605C72.7031 43.7032 75.901 41.1563 79 38.698C82.3593 36.0313 85.6927 33.3594 89.0416 32.2969C92.5885 31.1667 94.8593 31.6511 96.3593 32.1042C98.0104 32.5938 99.9479 33.6824 103.036 36.0001C108.854 40.3751 132.255 60.7969 136.297 64.3282C139.552 62.8594 154.026 56.6303 173.687 52.2969C171.979 41.8074 165.604 32.2188 155.932 24.3646C142.448 30.0261 125.979 32.9792 109.87 25.1146C109.786 25.0782 101.068 20.9532 92.4687 21.1563C79.6875 21.4532 74.151 26.9844 68.2916 32.8386L60.8698 40.8386Z" fill="white"/>
<path d="M135.349 66.5469C135.073 66.3073 107.833 42.474 101.661 37.8334C98.0885 35.1563 96.1042 34.474 94.0208 34.2032C92.9323 34.0677 91.4323 34.2657 90.3854 34.5521C87.5156 35.3334 83.7604 37.8438 80.4271 40.4844C76.9792 43.2344 73.724 45.823 70.7031 46.5C66.849 47.3646 62.1406 46.3438 59.9896 44.8907C59.1198 44.3073 58.5052 43.6302 58.2083 42.9375C57.4167 41.099 58.8802 39.6302 59.1198 39.3802L66.6406 31.25C67.5104 30.3802 68.3958 29.5052 69.2917 28.6459C66.8698 28.9636 64.625 29.5834 62.4427 30.1927C59.7188 30.9584 57.099 31.6875 54.4479 31.6823C53.3438 31.6823 47.4167 30.7084 46.2917 30.4063C39.4844 28.5417 33.5156 26.7344 24.599 22.5677C13.9115 30.5209 6.76563 40.4688 4.70312 51.4219C6.23958 51.8282 8.70833 52.5677 9.75 52.7969C33.9323 58.1771 41.4635 63.7136 42.8333 64.8698C44.3125 63.224 46.4479 62.1823 48.8281 62.1823C51.5052 62.1875 53.9167 63.5313 55.3802 65.6094C56.7656 64.5157 58.6771 63.5782 61.1458 63.5834C62.2656 63.5834 63.4271 63.7865 64.6042 64.1875C67.3333 65.125 68.7396 66.9375 69.4688 68.5834C70.3854 68.1719 71.5104 67.8646 72.8385 67.8698C74.1354 67.8698 75.4896 68.1667 76.8594 68.7553C81.3177 70.6719 82.0104 75.0469 81.6042 78.3542C81.9219 78.3125 82.2448 78.3021 82.5677 78.3021C87.8542 78.3021 92.151 82.599 92.151 87.8907C92.151 89.5261 91.7344 91.0678 91.0052 92.4167C92.4427 93.224 96.1094 95.0521 99.3281 94.6459C101.901 94.323 102.88 93.4428 103.229 92.948C103.469 92.6094 103.719 92.2084 103.484 91.9271L96.6615 84.349C96.6615 84.349 95.5365 83.2865 95.9115 82.875C96.2969 82.4532 96.9896 83.0573 97.4792 83.4688C100.953 86.3646 105.193 90.7448 105.193 90.7448C105.266 90.7917 105.542 91.349 107.115 91.6303C108.464 91.8698 110.854 91.7292 112.505 90.3698C112.922 90.0261 113.339 89.599 113.693 89.1563C113.661 89.1771 113.641 89.2084 113.615 89.2188C115.359 86.9844 113.417 84.724 113.417 84.724L105.453 75.7813C105.453 75.7813 104.313 74.7292 104.703 74.3021C105.047 73.9375 105.781 74.4896 106.281 74.9063C108.802 77.0157 112.365 80.5886 115.781 83.9375C116.448 84.4219 119.448 86.2813 123.427 83.6719C125.839 82.0886 126.323 80.1459 126.255 78.6771C126.083 76.7396 124.573 75.3542 124.573 75.3542L113.693 64.4167C113.693 64.4167 112.542 63.4323 112.948 62.9375C113.281 62.5209 114.026 63.1198 114.516 63.5313C117.979 66.4271 127.365 75.0313 127.365 75.0313C127.5 75.1302 130.74 77.4375 134.75 74.8855C136.182 73.9688 137.094 72.5886 137.172 70.9844C137.307 68.2032 135.349 66.5469 135.349 66.5469Z" fill="white"/>
<path d="M82.5677 80.4166C80.8802 80.401 79.0312 81.401 78.7916 81.2552C78.6562 81.1666 78.8958 80.4896 79.052 80.0989C79.2135 79.7083 81.4375 73.026 76.0208 70.7031C71.875 68.9218 69.3437 70.9218 68.4739 71.8281C68.2448 72.0677 68.1406 72.0468 68.1145 71.7448C68.0312 70.5416 67.4948 67.2864 63.9166 66.1927C58.802 64.6302 55.5156 68.1927 54.6823 69.4843C54.3073 66.5677 51.8437 64.3073 48.8229 64.3073C45.5468 64.3021 42.8854 66.9583 42.8854 70.2343C42.8854 73.5156 45.5416 76.1718 48.8177 76.1718C50.4114 76.1771 51.8593 75.5364 52.9218 74.5156C52.9583 74.5468 52.9687 74.5989 52.9531 74.7135C52.7031 76.1823 52.2448 81.5156 57.8281 83.6875C60.0677 84.5573 61.9739 83.9114 63.552 82.8021C64.026 82.4739 64.0989 82.6146 64.0312 83.0521C63.8333 84.4218 64.0885 87.3593 68.2031 89.0312C71.3385 90.3073 73.1927 89.0052 74.4062 87.8802C74.9323 87.3958 75.0781 87.4739 75.1041 88.2187C75.2552 92.1927 78.552 95.3437 82.5573 95.3437C86.6823 95.3489 90.026 92.0156 90.026 87.8906C90.0312 83.7656 86.6927 80.4635 82.5677 80.4166Z" fill="white"/>
<path d="M82.5677 94.8125C78.8281 94.8073 75.7864 91.9063 75.651 88.2032C75.6406 87.8855 75.6093 87.0417 74.8958 87.0417C74.5989 87.0417 74.3437 87.2188 74.052 87.4844C73.2291 88.2448 72.1823 89.0209 70.651 89.0209C69.9583 89.0209 69.2083 88.8594 68.4166 88.5313C64.4635 86.9323 64.4114 84.2188 64.5729 83.1303C64.6145 82.8438 64.6302 82.5365 64.427 82.3021L64.1875 82.0834H63.9375C63.7395 82.0834 63.5312 82.1667 63.2552 82.3646C62.1093 83.1667 61.0156 83.5521 59.901 83.5521C59.2916 83.5521 58.6614 83.4323 58.0312 83.1928C52.8333 81.1667 53.2448 76.2605 53.4948 74.7865C53.5312 74.4844 53.4583 74.25 53.2708 74.099L52.901 73.7969L52.5573 74.125C51.5468 75.099 50.2187 75.6355 48.8281 75.6355C45.8489 75.6302 43.427 73.2136 43.427 70.2344C43.4323 67.2553 45.8593 64.8386 48.8333 64.8438C51.526 64.8438 53.8177 66.8646 54.1562 69.5521L54.3437 71.0053L55.1406 69.7761C55.2291 69.6355 57.4114 66.3334 61.4218 66.3386C62.1875 66.3386 62.9739 66.4636 63.7656 66.7032C66.9635 67.6823 67.5052 70.5834 67.5885 71.7865C67.6458 72.4896 68.1458 72.5261 68.2448 72.5261C68.5208 72.5261 68.7239 72.349 68.8698 72.198C69.4739 71.573 70.7864 70.5209 72.8437 70.5209C73.7812 70.5261 74.7864 70.75 75.8177 71.1928C80.901 73.375 78.5937 79.8282 78.5677 79.8959C78.1302 80.9688 78.1145 81.4375 78.526 81.7136L78.7239 81.8073H78.8698C79.0989 81.8073 79.3854 81.7084 79.8541 81.5469C80.5468 81.3125 81.5885 80.9532 82.5677 80.9532H82.5729C86.3958 80.9948 89.5052 84.1094 89.5052 87.8907C89.5 91.7084 86.3906 94.8125 82.5677 94.8125ZM136.401 63.6928C128.01 56.375 108.62 39.5157 103.365 35.573C100.365 33.3125 98.3177 32.125 96.5208 31.5886C95.7135 31.3438 94.5989 31.0677 93.1614 31.0677C91.8229 31.0677 90.3906 31.3073 88.8906 31.7865C85.4948 32.8594 82.1145 35.5469 78.8437 38.1459L78.677 38.2813C75.6302 40.698 72.4791 43.2032 70.0989 43.7396C69.0573 43.974 67.9895 44.0938 66.9218 44.0938C64.25 44.0886 61.8541 43.3177 60.9583 42.1719C60.8073 41.9844 60.901 41.6771 61.25 41.2344L61.2968 41.1771L68.677 33.2188C74.4583 27.4375 79.9166 21.9792 92.4895 21.6927C92.6979 21.6875 92.9114 21.6823 93.1198 21.6823C100.943 21.6875 108.76 25.1927 109.641 25.5938C116.974 29.1771 124.547 30.9896 132.161 31C140.094 31 148.281 29.0365 156.885 25.0782C155.922 24.2657 154.922 23.4792 153.896 22.7084C146.333 25.9844 139.13 27.6407 132.182 27.6407C125.083 27.6355 117.99 25.9271 111.104 22.5677C110.745 22.3959 102.109 18.323 93.1198 18.3177C92.8854 18.3177 92.6458 18.323 92.4114 18.3282C81.8541 18.5782 75.9062 22.323 71.9062 25.6094C68.0156 25.7032 64.6614 26.6407 61.6718 27.474C59.0104 28.2136 56.7083 28.8594 54.4635 28.8594C53.5416 28.8594 51.875 28.7709 51.7291 28.7657C49.1458 28.6875 36.1406 25.5 25.802 21.5834C24.7448 22.3282 23.7291 23.099 22.7395 23.8907C33.5416 28.3177 46.6927 31.7448 50.8437 32.0157C51.9948 32.0886 53.2291 32.2188 54.4583 32.2188C57.2031 32.2188 59.9427 31.4532 62.5937 30.7084C64.1614 30.2709 65.8906 29.7917 67.7083 29.4427C67.2239 29.9219 66.7395 30.4063 66.25 30.8907L58.75 39.0052C58.1614 39.599 56.8802 41.1875 57.7291 43.1459C58.0625 43.9375 58.7448 44.6927 59.6979 45.3334C61.4843 46.5365 64.6875 47.3542 67.6562 47.3542C68.7864 47.3594 69.8541 47.2448 70.8333 47.0209C73.9791 46.3177 77.276 43.6927 80.7656 40.9115C83.552 38.7032 87.5052 35.8959 90.5312 35.0677C91.3802 34.8386 92.4166 34.6927 93.2552 34.6927C93.5052 34.698 93.7395 34.7032 93.9583 34.7396C95.9583 34.9896 97.8958 35.6719 101.344 38.2605C107.5 42.8855 134.745 66.7188 135.01 66.9532C135.026 66.9688 136.766 68.4688 136.646 70.9584C136.578 72.349 135.807 73.5834 134.469 74.4375C133.307 75.1771 132.104 75.5469 130.896 75.5469C129.073 75.5469 127.818 74.6927 127.734 74.6355C127.635 74.5521 118.302 65.9948 114.87 63.1198C114.323 62.6667 113.792 62.2553 113.255 62.2553C112.969 62.2553 112.714 62.3802 112.542 62.5938C112 63.2605 112.604 64.1823 113.318 64.7917L124.219 75.75C124.234 75.7605 125.578 77.0209 125.729 78.7032C125.812 80.5209 124.943 82.0365 123.141 83.2188C121.854 84.0677 120.547 84.5 119.271 84.5C117.599 84.5 116.422 83.7396 116.161 83.5521L114.599 82.0157C111.745 79.2032 108.792 76.2969 106.63 74.4896C106.104 74.0521 105.542 73.6459 105.005 73.6459C104.74 73.6459 104.5 73.75 104.318 73.9375C104.073 74.2136 103.901 74.7032 104.516 75.5209C104.766 75.8594 105.068 76.1355 105.068 76.1355L113.021 85.073C113.089 85.1511 114.661 87.0209 113.198 88.8855L112.922 89.2448C112.682 89.5053 112.422 89.75 112.182 89.9584C110.823 91.0678 109.01 91.1875 108.292 91.1875C107.906 91.1875 107.536 91.1563 107.214 91.0938C106.432 90.9584 105.901 90.7396 105.646 90.4375L105.552 90.3334C105.12 89.8855 101.104 85.7917 97.7916 83.0209C97.3541 82.6563 96.8073 82.1928 96.2448 82.1928C95.9635 82.1928 95.7135 82.3021 95.526 82.5157C94.8645 83.2344 95.8541 84.3073 96.2708 84.7032L103.057 92.1875C103.047 92.25 102.964 92.4063 102.797 92.6407C102.557 92.9792 101.734 93.8021 99.2708 94.1094C98.9739 94.1511 98.6718 94.1667 98.3698 94.1667C95.8333 94.1667 93.125 92.9323 91.7291 92.1928C92.3645 90.8542 92.6927 89.375 92.6927 87.8959C92.6979 82.3073 88.1614 77.7657 82.5781 77.7605C82.4583 77.7605 82.3281 77.7657 82.2083 77.7657C82.3958 75.2188 82.0312 70.3907 77.0781 68.2657C75.651 67.6459 74.2291 67.3334 72.8437 67.3334C71.7604 67.3334 70.7187 67.5209 69.7448 67.8959C68.7135 65.8959 67.0104 64.4428 64.7864 63.6875C63.5573 63.2605 62.3333 63.0469 61.151 63.0469C59.0885 63.0469 57.1927 63.6511 55.4948 64.8594C53.8698 62.8386 51.4166 61.6407 48.8385 61.6407C46.5781 61.6407 44.401 62.5469 42.7916 64.1407C40.6823 62.5313 32.302 57.2084 9.87496 52.1146C8.78642 51.8646 6.29683 51.1563 4.77079 50.7084C4.51558 51.9219 4.32288 53.1459 4.19788 54.3855C4.19788 54.3855 8.33329 55.375 9.14579 55.5625C32.052 60.6459 39.625 65.9375 40.9062 66.9375C40.4687 67.9792 40.2448 69.1042 40.2448 70.2344C40.2395 74.9688 44.0885 78.823 48.8229 78.8282C49.3541 78.8282 49.8802 78.7813 50.401 78.6875C51.1145 82.1667 53.3906 84.8073 56.875 86.1615C57.8958 86.5521 58.9218 86.7553 59.9323 86.7553C60.5885 86.7553 61.2448 86.6771 61.8906 86.5105C62.5312 88.1407 63.9791 90.1823 67.2135 91.4948C68.3489 91.9532 69.4843 92.1928 70.5885 92.1928C71.4895 92.1928 72.3698 92.0313 73.2083 91.724C74.7604 95.5 78.4479 98 82.5625 98C85.2916 98.0053 87.9114 96.8959 89.8177 94.9271C91.4531 95.8386 94.901 97.4792 98.3854 97.4844C98.8385 97.4844 99.2604 97.4532 99.6875 97.4063C103.146 96.9688 104.755 95.6146 105.495 94.5625C105.63 94.375 105.75 94.1823 105.854 93.9792C106.672 94.2136 107.573 94.4063 108.599 94.4063C110.49 94.4063 112.307 93.7605 114.135 92.4271C115.937 91.1303 117.219 89.2657 117.406 87.6771C117.411 87.6563 117.411 87.6303 117.417 87.6094C118.021 87.7344 118.646 87.7969 119.266 87.7969C121.214 87.7969 123.13 87.1928 124.958 85.9896C128.484 83.6771 129.099 80.6563 129.042 78.6771C129.656 78.8073 130.292 78.875 130.917 78.875C132.745 78.875 134.536 78.323 136.245 77.2344C138.432 75.8386 139.75 73.6928 139.953 71.2032C140.089 69.5105 139.667 67.8021 138.776 66.3334C144.687 63.7865 158.198 58.8594 174.115 55.2709C174.021 54.0365 173.839 52.8177 173.62 51.6042C154.365 55.875 139.995 62.0938 136.401 63.6928Z" fill="#253E8B"/>
</svg>
