<svg width="1920" height="1080" viewBox="0 0 1920 1080" fill="none" xmlns="http://www.w3.org/2000/svg">
    <g id="Frame" clip-path="url(#clip0_196_26)">
        <g id="Vector 5">
            <path
                d="M434 267.5C515.6 175.9 447.5 47.5 400.5 -2.5H189.5H-27.5V398.5C13.5 457.5 19 428.5 141 475C263 521.5 278.5 790 395 686.5C488.2 603.7 296.5 607.5 457.5 518C597 462.5 352.4 359.1 434 267.5Z"
                fill="url(#paint0_linear_196_26)" />
            <path
                d="M1820.5 548.5C1847.7 451.3 1697 421.087 1666 428.5C1643 434 1631.9 432.2 1627.5 475C1622 528.5 1608 563 1686.5 618.5C1765 674 1786.5 670 1820.5 548.5Z"
                fill="url(#paint1_linear_196_26)" />
            <path
                d="M196.5 618.5C145.3 524.1 104 524.5 38.5 512L-0.5 504V1080H280.5C303.167 1050.17 357.8 979 395 933C441.5 875.5 416.5 801.5 316 779.5C284.554 772.616 260.5 736.5 196.5 618.5Z"
                fill="url(#paint2_linear_196_26)" />
            <path d="M934 903C962 704.5 470 998 457.5 1080L1505 1167C1476.93 1026.5 902.601 1125.59 934 903Z"
                fill="url(#paint3_linear_196_26)" />
            <path
                d="M1919 1080V752.5C1919 739 1926.5 671 1894 671C1847.2 671 1889.5 830 1860.5 875.5C1832.52 919.401 1846.5 1010 1806.5 998C1771.14 987.393 1726.5 918 1676.5 853.5C1626.5 789 1588 781 1498.5 933C1426.9 1054.6 1528.33 1081.67 1588 1080H1919Z"
                fill="url(#paint4_linear_196_26)" />
        </g>
    </g>
    <defs>
        <linearGradient id="paint0_linear_196_26" x1="965.5" y1="-714.5" x2="946.124" y2="1080.07"
            gradientUnits="userSpaceOnUse">
            <stop stop-color="#00AEEF" />
            <stop offset="0.392451" stop-color="#00AEEF" stop-opacity="0.807292" />
            <stop offset="0.58751" stop-color="#00AEEF" stop-opacity="0.609375" />
            <stop offset="0.751851" stop-color="#00AEEF" stop-opacity="0.364583" />
            <stop offset="1" stop-color="#00AEEF" stop-opacity="0" />
        </linearGradient>
        <linearGradient id="paint1_linear_196_26" x1="965.5" y1="-714.5" x2="946.124" y2="1080.07"
            gradientUnits="userSpaceOnUse">
            <stop stop-color="#00AEEF" />
            <stop offset="0.392451" stop-color="#00AEEF" stop-opacity="0.807292" />
            <stop offset="0.58751" stop-color="#00AEEF" stop-opacity="0.609375" />
            <stop offset="0.751851" stop-color="#00AEEF" stop-opacity="0.364583" />
            <stop offset="1" stop-color="#00AEEF" stop-opacity="0" />
        </linearGradient>
        <linearGradient id="paint2_linear_196_26" x1="965.5" y1="-714.5" x2="946.124" y2="1080.07"
            gradientUnits="userSpaceOnUse">
            <stop stop-color="#00AEEF" />
            <stop offset="0.392451" stop-color="#00AEEF" stop-opacity="0.807292" />
            <stop offset="0.58751" stop-color="#00AEEF" stop-opacity="0.609375" />
            <stop offset="0.751851" stop-color="#00AEEF" stop-opacity="0.364583" />
            <stop offset="1" stop-color="#00AEEF" stop-opacity="0" />
        </linearGradient>
        <linearGradient id="paint3_linear_196_26" x1="965.5" y1="-714.5" x2="946.124" y2="1080.07"
            gradientUnits="userSpaceOnUse">
            <stop stop-color="#00AEEF" />
            <stop offset="0.392451" stop-color="#00AEEF" stop-opacity="0.807292" />
            <stop offset="0.58751" stop-color="#00AEEF" stop-opacity="0.609375" />
            <stop offset="0.751851" stop-color="#00AEEF" stop-opacity="0.364583" />
            <stop offset="1" stop-color="#00AEEF" stop-opacity="0" />
        </linearGradient>
        <linearGradient id="paint4_linear_196_26" x1="965.5" y1="-714.5" x2="946.124" y2="1080.07"
            gradientUnits="userSpaceOnUse">
            <stop stop-color="#00AEEF" />
            <stop offset="0.392451" stop-color="#00AEEF" stop-opacity="0.807292" />
            <stop offset="0.58751" stop-color="#00AEEF" stop-opacity="0.609375" />
            <stop offset="0.751851" stop-color="#00AEEF" stop-opacity="0.364583" />
            <stop offset="1" stop-color="#00AEEF" stop-opacity="0" />
        </linearGradient>
        <clipPath id="clip0_196_26">
            <rect width="1920" height="1080" fill="white" />
        </clipPath>
    </defs>
</svg>