<svg width="463" height="197" viewBox="0 0 463 197" fill="none" xmlns="http://www.w3.org/2000/svg">
<path id="Vector 3" d="M1.68784 2.97468C-0.488313 19.5949 1.2526 56.2911 25.6255 70.1139C56.0915 87.3924 55.6563 120.962 48.2574 136.759C36.1687 162.57 26.9311 172.304 27.8016 195.506M26.4959 3.46835C24.3198 20.0886 26.0607 56.7848 50.4336 70.6076C80.8996 87.8861 80.4644 121.456 73.0655 137.253C60.9768 163.064 51.7392 172.797 52.6097 196M53.0449 2.97468C50.8688 19.5949 52.6097 56.2911 76.9826 70.1139C107.449 87.3924 107.013 120.962 99.6145 136.759C87.5258 162.57 78.2882 172.304 79.1587 195.506M76.9826 2.97468C74.8064 19.5949 76.5473 56.2911 100.92 70.1139C131.386 87.3924 130.951 120.962 123.552 136.759C111.463 162.57 102.226 172.304 103.096 195.506M101.355 2.97468C99.1793 19.5949 100.92 56.2911 125.293 70.1139C155.759 87.3924 155.324 120.962 147.925 136.759C135.836 162.57 126.599 172.304 127.469 195.506M124.858 2.97468C122.682 19.5949 124.423 56.2911 148.795 70.1139C179.262 87.3924 178.826 120.962 171.427 136.759C159.339 162.57 150.101 172.304 150.972 195.506M170.557 68.1392C201.023 85.4177 200.588 118.987 193.189 134.785C181.1 160.595 171.863 170.329 172.733 193.532M171.427 1.49367C169.251 18.1139 170.992 54.8101 195.365 68.6329C225.831 85.9114 225.396 119.481 217.997 135.278C205.908 161.089 196.671 170.823 197.541 194.025M197.976 1C195.8 17.6203 197.541 54.3165 221.914 68.1392C252.38 85.4177 251.945 118.987 244.546 134.785C232.457 160.595 223.22 170.329 224.09 193.532M221.914 1C219.738 17.6203 221.479 54.3165 245.852 68.1392C276.318 85.4177 275.882 118.987 268.484 134.785C256.395 160.595 247.157 170.329 248.028 193.532M246.287 1C244.111 17.6203 245.852 54.3165 270.224 68.1392C300.691 85.4177 300.255 118.987 292.856 134.785C280.768 160.595 271.53 170.329 272.401 193.532M269.789 1C267.613 17.6203 269.354 54.3165 293.727 68.1392C324.193 85.4177 323.758 118.987 316.359 134.785C304.27 160.595 295.033 170.329 295.903 193.532M312.007 69.6203C342.473 86.8987 342.037 120.468 334.638 136.266C322.55 162.076 313.312 171.81 314.183 195.013M312.877 2.97468C310.701 19.5949 312.442 56.2911 336.815 70.1139C367.281 87.3924 366.845 120.962 359.447 136.759C347.358 162.57 338.12 172.304 338.991 195.506M339.426 2.48101C337.25 19.1013 338.991 55.7975 363.364 69.6203C393.83 86.8987 393.394 120.468 385.996 136.266C373.907 162.076 364.669 171.81 365.54 195.013M363.364 2.48101C361.187 19.1013 362.928 55.7975 387.301 69.6203C417.767 86.8987 417.332 120.468 409.933 136.266C397.845 162.076 388.607 171.81 389.477 195.013M387.736 2.48101C385.56 19.1013 387.301 55.7975 411.674 69.6203C442.14 86.8987 441.705 120.468 434.306 136.266C422.217 162.076 412.98 171.81 413.85 195.013M411.239 2.48101C409.063 19.1013 410.804 55.7975 435.177 69.6203C465.643 86.8987 465.207 120.468 457.808 136.266C445.72 162.076 436.482 171.81 437.353 195.013" stroke="#fcfcfc" stroke-opacity="0.2"/>
</svg>
