<svg width="506" height="133" viewBox="0 0 506 133" fill="none" xmlns="http://www.w3.org/2000/svg">
<path d="M185.318 60.9375C185.318 27.5885 143.88 0.401001 92.7604 0.401001C41.6458 0.401001 0.208323 27.5885 0.208323 60.9375C0.208323 61.802 0.197906 64.1823 0.197906 64.4843C0.197906 99.8645 36.4167 128.521 92.75 128.521C149.432 128.521 185.318 99.875 185.318 64.4895C185.318 63.2552 185.318 62.5416 185.318 60.9375Z" fill="#253E8B"/>
<path d="M181.776 60.9114C181.776 92.3541 141.932 117.844 92.7812 117.844C43.6302 117.844 3.78644 92.3541 3.78644 60.9114C3.78644 29.4635 43.6302 3.97394 92.7812 3.97394C141.932 3.97394 181.776 29.4635 181.776 60.9114Z" fill="#00AEEF"/>
<path d="M63.2291 42.9479C63.1823 43.0365 62.2968 43.9583 62.8698 44.6927C64.276 46.4896 68.6146 47.5156 73 46.5312C75.6093 45.9479 78.9583 43.2865 82.2031 40.7083C85.7135 37.9167 89.2031 35.125 92.7083 34.0104C96.4166 32.8281 98.7969 33.3385 100.37 33.8125C102.094 34.3229 104.12 35.4583 107.354 37.8854C113.443 42.4635 137.927 63.8385 142.156 67.5312C145.568 65.9896 160.708 59.474 181.286 54.9375C179.5 43.9687 172.823 33.9271 162.703 25.7083C148.599 31.6354 131.359 34.7292 114.505 26.4948C114.417 26.4583 105.292 22.1406 96.2969 22.3542C82.9166 22.6615 77.125 28.4531 70.9948 34.5781L63.2291 42.9479Z" fill="white"/>
<path d="M141.161 69.8542C140.875 69.599 112.37 44.6563 105.917 39.8073C102.177 37.0052 100.099 36.2865 97.9167 36.0104C96.7813 35.8594 95.2083 36.0729 94.1146 36.375C91.1094 37.1927 87.1823 39.8177 83.6927 42.5833C80.0833 45.4583 76.6771 48.1667 73.5208 48.875C69.4844 49.7813 64.5573 48.7083 62.3073 47.1927C61.3958 46.5781 60.7552 45.8698 60.4479 45.151C59.6146 43.224 61.1458 41.6823 61.401 41.4271L69.2656 32.9167C70.1823 32.0052 71.099 31.0938 72.0417 30.1927C69.5052 30.526 67.1563 31.1719 64.875 31.8073C62.026 32.6094 59.2865 33.3698 56.5104 33.3698C55.3542 33.3698 49.151 32.3542 47.974 32.0313C40.8542 30.0833 34.6042 28.1875 25.276 23.8281C14.0938 32.1563 6.61458 42.5625 4.45312 54.026C6.0625 54.4531 8.65104 55.224 9.73958 55.4635C35.0417 61.0885 42.9219 66.8854 44.3542 68.099C45.901 66.375 48.1354 65.2865 50.6302 65.2865C53.4271 65.2917 55.9531 66.6927 57.4844 68.8698C58.9323 67.724 60.9323 66.75 63.5156 66.75C64.6875 66.75 65.9063 66.9688 67.1354 67.3854C69.9896 68.3646 71.4635 70.2656 72.2292 71.9844C73.1875 71.5521 74.3646 71.2344 75.75 71.2396C77.1146 71.2396 78.5313 71.5469 79.9583 72.1667C84.625 74.1667 85.349 78.75 84.9271 82.2031C85.2604 82.1667 85.5938 82.151 85.9323 82.151C91.4635 82.1563 95.9635 86.651 95.9635 92.1875C95.9635 93.901 95.526 95.5104 94.7604 96.9219C96.2656 97.7708 100.104 99.6823 103.474 99.2552C106.167 98.9167 107.188 97.9948 107.552 97.4792C107.802 97.125 108.068 96.7083 107.823 96.4115L100.682 88.4792C100.682 88.4792 99.5052 87.3646 99.8958 86.9375C100.297 86.4948 101.026 87.1302 101.536 87.5573C105.172 90.5938 109.609 95.1719 109.609 95.1719C109.682 95.224 109.979 95.8021 111.62 96.099C113.031 96.349 115.531 96.2031 117.26 94.7813C117.698 94.4219 118.135 93.974 118.5 93.5104C118.474 93.5313 118.448 93.5677 118.422 93.5781C120.245 91.2396 118.219 88.875 118.219 88.875L109.88 79.5156C109.88 79.5156 108.693 78.4115 109.094 77.9688C109.458 77.5833 110.224 78.1667 110.75 78.599C113.385 80.8073 117.115 84.5469 120.693 88.0469C121.385 88.5625 124.531 90.5052 128.688 87.7708C131.214 86.1146 131.719 84.0833 131.646 82.5469C131.474 80.5156 129.885 79.0677 129.885 79.0677L118.5 67.6198C118.5 67.6198 117.297 66.5938 117.724 66.0729C118.073 65.6354 118.854 66.2656 119.365 66.6927C122.99 69.7292 132.813 78.7344 132.813 78.7344C132.953 78.8333 136.344 81.25 140.536 78.5781C142.036 77.6198 142.995 76.1771 143.078 74.4948C143.219 71.5833 141.161 69.8542 141.161 69.8542Z" fill="white"/>
<path d="M85.9323 84.3698C84.1667 84.3489 82.2344 85.3958 81.9844 85.2448C81.8437 85.151 82.0885 84.4427 82.2552 84.0312C82.4271 83.625 84.75 76.6302 79.0833 74.1979C74.7448 72.3385 72.0937 74.4323 71.1823 75.3802C70.9427 75.6302 70.8385 75.6094 70.8073 75.2916C70.7239 74.0312 70.1562 70.625 66.4167 69.4791C61.0677 67.8437 57.625 71.5781 56.75 72.9271C56.3594 69.875 53.7864 67.5104 50.625 67.5052C47.1927 67.5052 44.4114 70.2812 44.4114 73.7135C44.4062 77.1406 47.1875 79.9219 50.6198 79.9219C52.2864 79.9271 53.7969 79.2604 54.9114 78.1927C54.9479 78.2239 54.9635 78.2812 54.9427 78.401C54.6823 79.9323 54.2031 85.5156 60.0469 87.7916C62.3906 88.6979 64.3854 88.0208 66.0364 86.8646C66.526 86.5156 66.6094 86.6614 66.5364 87.125C66.3281 88.5625 66.5937 91.6354 70.9062 93.3802C74.1823 94.7135 76.125 93.3489 77.3958 92.1771C77.9479 91.6719 78.0989 91.75 78.125 92.5312C78.2812 96.6875 81.7344 99.9844 85.9219 99.9896C90.2396 99.9896 93.7396 96.5 93.7396 92.1875C93.7448 87.8698 90.25 84.4166 85.9323 84.3698Z" fill="white"/>
<path d="M85.9323 99.4323C82.0208 99.427 78.8385 96.3854 78.6927 92.5156C78.6875 92.1823 78.651 91.2968 77.9063 91.2968C77.5938 91.2968 77.3281 91.4843 77.0208 91.7604C76.1615 92.5573 75.0677 93.3698 73.4688 93.3698C72.7396 93.3698 71.9531 93.1979 71.125 92.8593C66.9896 91.1875 66.9323 88.3489 67.099 87.2083C67.1458 86.901 67.1615 86.5833 66.9531 86.3385L66.6979 86.1145H66.4427C66.2344 86.1145 66.0156 86.1979 65.724 86.4062C64.526 87.2448 63.3802 87.651 62.2135 87.651C61.5729 87.651 60.9167 87.5208 60.2552 87.2656C54.8177 85.151 55.25 80.0156 55.5156 78.4739C55.5521 78.1562 55.474 77.9166 55.276 77.7552L54.8906 77.4375L54.5313 77.7812C53.474 78.802 52.0833 79.3645 50.6302 79.3645C47.5104 79.3593 44.974 76.8281 44.9792 73.7135C44.9792 70.5937 47.5208 68.0677 50.6354 68.0677C53.4531 68.0677 55.849 70.1875 56.2083 73L56.401 74.5156L57.2344 73.2343C57.3281 73.0833 59.6094 69.6302 63.8073 69.6354C64.6042 69.6354 65.4271 69.7604 66.2604 70.0208C69.6042 71.0416 70.1719 74.0729 70.2604 75.3385C70.3177 76.0729 70.8438 76.1093 70.9479 76.1093C71.2344 76.1093 71.4479 75.927 71.599 75.7656C72.2292 75.1093 73.6042 74.0156 75.7552 74.0156C76.7396 74.0156 77.7917 74.25 78.8698 74.7135C84.1875 76.9948 81.776 83.75 81.75 83.8229C81.2917 84.9427 81.2708 85.4375 81.7031 85.7239L81.9115 85.8229H82.0677C82.3073 85.8229 82.6042 85.7187 83.0938 85.552C83.8177 85.302 84.9115 84.927 85.9323 84.927H85.9375C89.9375 84.9739 93.1927 88.2291 93.1927 92.1875C93.1875 96.1823 89.9323 99.4323 85.9323 99.4323ZM142.266 66.8698C133.484 59.2083 113.193 41.5677 107.698 37.4375C104.557 35.0781 102.417 33.8281 100.536 33.2708C99.6927 33.0156 98.5208 32.7239 97.0156 32.7239C95.6198 32.7239 94.1198 32.9739 92.5521 33.4739C89 34.5989 85.4635 37.4114 82.0365 40.1302L81.8594 40.2708C78.6719 42.8073 75.3802 45.427 72.8854 45.9843C71.7969 46.2291 70.6771 46.3541 69.5625 46.3541C66.7656 46.3541 64.2604 45.5468 63.3177 44.3489C63.1615 44.1458 63.2604 43.8281 63.625 43.3645L63.6771 43.302L71.401 34.9791C77.4479 28.927 83.1615 23.2187 96.3177 22.9166C96.5313 22.9114 96.7552 22.9062 96.974 22.9062C105.161 22.9114 113.344 26.5781 114.26 27C121.938 30.7448 129.865 32.6458 137.828 32.651C146.13 32.6562 154.698 30.5989 163.703 26.4531C162.698 25.6093 161.651 24.7864 160.573 23.9791C152.661 27.4062 145.125 29.1406 137.854 29.1406C130.422 29.1302 123.005 27.3489 115.797 23.8333C115.417 23.651 106.38 19.3906 96.974 19.3854C96.7292 19.3854 96.4792 19.3906 96.2344 19.3958C85.1875 19.651 78.9635 23.5781 74.776 27.0156C70.7083 27.1145 67.1927 28.0937 64.0729 28.9687C61.2813 29.7395 58.875 30.4114 56.526 30.4114C55.5573 30.4114 53.8177 30.3229 53.6615 30.3177C50.9635 30.2343 37.3542 26.901 26.5313 22.802C25.4271 23.5833 24.3646 24.3906 23.3281 25.2135C34.6354 29.8489 48.3958 33.4323 52.7396 33.7135C53.9479 33.7968 55.2344 33.9323 56.5208 33.9323C59.3958 33.9323 62.2604 33.1302 65.0365 32.3541C66.6719 31.8906 68.4792 31.3906 70.3854 31.026C69.875 31.526 69.3698 32.0312 68.8594 32.5364L61.0156 41.026C60.3958 41.651 59.0521 43.3177 59.9375 45.3645C60.2917 46.1927 61.0052 46.9843 62.0052 47.6562C63.8698 48.9166 67.2188 49.7656 70.3333 49.7708C71.5104 49.7708 72.6302 49.651 73.6563 49.4218C76.9427 48.6823 80.3958 45.9323 84.0521 43.026C86.9635 40.7135 91.099 37.776 94.2708 36.9114C95.1563 36.6718 96.2448 36.5208 97.1146 36.5208C97.375 36.526 97.625 36.5312 97.8542 36.5677C99.9479 36.8281 101.969 37.5416 105.583 40.2552C112.026 45.0937 140.531 70.0312 140.813 70.2812C140.828 70.2968 142.646 71.8593 142.521 74.4687C142.453 75.9218 141.646 77.2135 140.245 78.1093C139.026 78.8802 137.771 79.2708 136.505 79.2708C134.599 79.2708 133.286 78.375 133.198 78.3177C133.094 78.2291 123.328 69.276 119.734 66.2656C119.161 65.7916 118.604 65.3645 118.042 65.3645C117.745 65.3645 117.479 65.4895 117.297 65.7187C116.734 66.4166 117.365 67.3802 118.115 68.0156L129.521 79.4791C129.536 79.4948 130.943 80.8125 131.094 82.5729C131.188 84.4739 130.276 86.0625 128.385 87.302C127.042 88.1875 125.677 88.6406 124.344 88.6406C122.594 88.6406 121.359 87.8385 121.089 87.651L119.453 86.0364C116.464 83.0937 113.375 80.052 111.115 78.1666C110.563 77.7083 109.974 77.2864 109.411 77.2864C109.135 77.2864 108.885 77.3854 108.693 77.5885C108.438 77.875 108.255 78.3906 108.901 79.2448C109.161 79.5937 109.474 79.8854 109.474 79.8854L117.802 89.2395C117.87 89.3229 119.516 91.2812 117.99 93.2291L117.693 93.5989C117.448 93.875 117.177 94.1302 116.922 94.3489C115.5 95.5156 113.604 95.6406 112.854 95.6406C112.453 95.6406 112.063 95.6041 111.729 95.5416C110.906 95.3958 110.354 95.1666 110.083 94.8489L109.984 94.7448C109.531 94.276 105.333 89.9895 101.859 87.0937C101.406 86.7083 100.833 86.2239 100.245 86.2239C99.9531 86.2239 99.6927 86.3385 99.4896 86.5625C98.8021 87.3125 99.8333 88.4375 100.271 88.8541L107.375 96.6823C107.365 96.75 107.276 96.9114 107.104 97.1614C106.849 97.5104 105.99 98.375 103.411 98.6979C103.104 98.7395 102.786 98.7552 102.469 98.7552C99.8125 98.7552 96.9792 97.4635 95.5208 96.6927C96.1875 95.2864 96.5313 93.7395 96.5313 92.1927C96.5313 86.3437 91.7865 81.5885 85.9427 81.5885C85.8177 81.5885 85.6875 81.5885 85.5625 81.5937C85.75 78.927 85.375 73.875 80.1875 71.651C78.6927 71.0052 77.2031 70.677 75.7604 70.677C74.625 70.677 73.5365 70.8698 72.5156 71.2604C71.4375 69.1718 69.6563 67.651 67.3281 66.8593C66.0417 66.4166 64.7604 66.1875 63.526 66.1875C61.3646 66.1875 59.3802 66.8229 57.6042 68.0833C55.9063 65.9739 53.3385 64.7187 50.6354 64.7187C48.2708 64.7187 45.9948 65.6666 44.3125 67.3385C42.099 65.651 33.3333 60.0781 9.86458 54.75C8.72917 54.4948 6.125 53.7448 4.52604 53.2812C4.26042 54.5468 4.05729 55.8333 3.92188 57.1302C3.92188 57.1302 8.25 58.1666 9.10417 58.3593C33.0781 63.6823 40.9948 69.2187 42.3385 70.2656C41.8802 71.3541 41.6458 72.526 41.6458 73.7135C41.6406 78.6614 45.6719 82.6979 50.625 82.7031C51.1823 82.7031 51.7344 82.651 52.2708 82.552C53.0208 86.1979 55.4063 88.9635 59.0469 90.3802C60.1146 90.7864 61.1927 91 62.25 91C62.9323 91 63.625 90.9166 64.2969 90.7448C64.9688 92.4531 66.4844 94.5833 69.8698 95.9583C71.0573 96.4375 72.2448 96.6875 73.3958 96.6875C74.3385 96.6875 75.2604 96.5208 76.1406 96.1979C77.7604 100.151 81.625 102.766 85.9271 102.766C88.7813 102.771 91.5208 101.609 93.5208 99.552C95.2292 100.505 98.8385 102.224 102.484 102.229C102.958 102.229 103.401 102.193 103.844 102.141C107.469 101.687 109.151 100.266 109.927 99.1666C110.068 98.9739 110.193 98.7708 110.302 98.5573C111.156 98.8073 112.094 99.0052 113.172 99.0104C115.151 99.0104 117.052 98.3333 118.969 96.9323C120.854 95.5781 122.193 93.625 122.385 91.9635C122.391 91.9375 122.396 91.9166 122.401 91.8906C123.031 92.0208 123.688 92.0885 124.339 92.0885C126.375 92.0885 128.375 91.4531 130.292 90.1979C133.984 87.7812 134.625 84.6198 134.568 82.5468C135.208 82.6823 135.87 82.75 136.526 82.75C138.438 82.75 140.318 82.177 142.104 81.0364C144.396 79.5729 145.771 77.3333 145.979 74.7239C146.125 72.9531 145.688 71.1666 144.75 69.6302C150.938 66.9635 165.078 61.8073 181.729 58.052C181.63 56.7604 181.443 55.4843 181.214 54.2135C161.068 58.6875 146.031 65.1927 142.266 66.8698Z" fill="#253E8B"/>
<path d="M492.422 46.3802C490.802 48.5312 488.484 49.6041 485.453 49.6041C482.427 49.6041 480.094 48.5312 478.464 46.3802C476.828 44.2291 476.016 41.1666 476.016 37.2031C476.016 33.2395 476.828 30.1875 478.464 28.0468C480.094 25.9114 482.427 24.8385 485.453 24.8385C488.484 24.8385 490.802 25.9114 492.422 28.0468C494.042 30.1875 494.859 33.2395 494.859 37.2031C494.859 41.1666 494.042 44.2291 492.422 46.3802ZM500.703 22.3645C497.359 18.1823 492.292 16.0885 485.484 16.0885C478.688 16.0885 473.615 18.1823 470.276 22.3645C466.932 26.552 465.26 31.4948 465.26 37.2031C465.26 43.0104 466.932 47.9739 470.276 52.1041C473.615 56.2187 478.688 58.2864 485.484 58.2864C492.292 58.2864 497.359 56.2187 500.703 52.1041C504.047 47.9739 505.714 43.0104 505.714 37.2031C505.714 31.4948 504.047 26.552 500.703 22.3645Z" fill="#253E8B"/>
<path d="M410.057 41.4896C409.99 44.9635 408.995 47.3594 407.083 48.6667C405.172 49.9792 403.083 50.6406 400.818 50.6406C399.385 50.6406 398.172 50.2396 397.172 49.4531C396.172 48.6615 395.677 47.3802 395.677 45.6042C395.677 43.6198 396.49 42.151 398.125 41.1979C399.099 40.6458 400.682 40.1667 402.901 39.7865L405.266 39.349C406.443 39.125 407.37 38.8854 408.047 38.6302C408.734 38.3802 409.396 38.0469 410.057 37.6302V41.4896ZM415.323 18.8646C411.932 17.151 408.057 16.2812 403.693 16.2812C396.984 16.2812 392.25 18.0313 389.495 21.526C387.76 23.7656 386.792 26.6146 386.563 30.0885H396.583C396.833 28.5573 397.323 27.3438 398.063 26.4479C399.099 25.2344 400.854 24.625 403.339 24.625C405.557 24.625 407.24 24.9271 408.385 25.5573C409.526 26.1719 410.099 27.2969 410.099 28.9219C410.099 30.2604 409.359 31.2396 407.859 31.875C407.026 32.2396 405.646 32.5417 403.708 32.7865L400.156 33.224C396.125 33.7292 393.057 34.5833 390.984 35.776C387.188 37.9635 385.297 41.4896 385.297 46.375C385.297 50.1354 386.469 53.0469 388.828 55.099C391.182 57.151 394.177 58.0104 397.792 58.1823C420.453 59.1927 420.198 46.2396 420.406 43.5417V28.6302C420.406 23.849 418.708 20.5938 415.323 18.8646Z" fill="#253E8B"/>
<path d="M363.646 25.1614C366.24 25.1614 368.141 25.9635 369.37 27.5625C370.214 28.7448 370.74 30.0833 370.943 31.5625H382.125C381.51 25.9219 379.536 21.9844 376.203 19.75C372.859 17.5312 368.583 16.4114 363.349 16.4114C357.187 16.4114 352.354 18.3021 348.859 22.0781C345.359 25.8594 343.609 31.1406 343.609 37.9323C343.609 43.9427 345.193 48.8437 348.359 52.625C351.526 56.3958 356.469 58.2864 363.188 58.2864C369.911 58.2864 374.984 56.026 378.406 51.4948C380.547 48.6875 381.75 45.7083 382.005 42.5625H370.865C370.635 44.6406 369.984 46.3385 368.906 47.6458C367.833 48.9479 366.021 49.6041 363.458 49.6041C359.854 49.6041 357.396 47.9635 356.089 44.6614C355.375 42.9062 355.016 40.5781 355.016 37.6771C355.016 34.6354 355.375 32.1979 356.089 30.3594C357.448 26.901 359.969 25.1614 363.646 25.1614Z" fill="#253E8B"/>
<path d="M340.615 16.4114C317.651 16.4114 319.01 36.7448 319.01 36.7448V57.3958H329.427V38.026C329.427 34.8541 329.828 32.5 330.625 30.9739C332.052 28.2656 334.849 26.9062 339.016 26.9062C339.328 26.9062 339.74 26.9219 340.25 26.9479C340.755 26.9687 341.333 27.0156 341.995 27.0937V16.4896C341.531 16.4583 341.234 16.4479 341.104 16.4323C340.969 16.4219 340.807 16.4114 340.615 16.4114Z" fill="#253E8B"/>
<path d="M288.328 27.2031C289.797 25.6979 291.854 24.9427 294.505 24.9427C296.953 24.9427 298.995 25.651 300.646 27.0781C302.292 28.4948 303.214 30.5833 303.401 33.3281H285.573C285.943 30.75 286.865 28.7135 288.328 27.2031ZM302.333 46.6041C301.896 47.2291 301.427 47.7656 300.906 48.1823C299.438 49.3958 297.438 49.7604 295.083 49.7604C292.854 49.7604 291.115 49.4219 289.536 48.4271C286.938 46.8333 285.474 44.1302 285.318 40.1562H314.151C314.193 36.7396 314.078 34.125 313.802 32.3021C313.323 29.2031 312.271 26.4687 310.651 24.1198C308.854 21.4531 306.568 19.5 303.807 18.2604C301.052 17.026 297.953 16.4114 294.505 16.4114C288.698 16.4114 283.984 18.2396 280.349 21.8958C276.714 25.5573 274.891 30.8125 274.891 37.6666C274.891 44.9896 276.906 50.2708 280.938 53.5156C284.964 56.7604 289.615 58.3906 294.88 58.3906C301.26 58.3906 306.224 56.4635 309.771 52.6146C311.682 50.5885 312.88 48.5833 313.385 46.6041H302.333Z" fill="#253E8B"/>
<path d="M270.708 57.3906H261.188V33.4219C261.188 31.2344 260.469 26.026 254.188 26.026C250 26.026 246.974 29.0469 246.974 33.4219V57.3906H237.448V33.4219C237.448 31.2344 236.797 26.026 230.521 26.026C226.26 26.026 223.302 29.0469 223.302 33.4219V57.3906H213.781V33.651C213.781 23.7552 220.344 16.2708 230.521 16.2708C235.573 16.2708 239.682 18.3958 242.354 21.7969C245.167 18.3958 249.349 16.2708 254.188 16.2708C264.578 16.2708 270.708 23.4531 270.708 33.651V57.3906Z" fill="#253E8B"/>
<path d="M449.661 46.4635C448.141 48.6458 445.906 49.7344 442.979 49.7344C440.047 49.7344 437.865 48.6354 436.427 46.4479C434.99 44.25 434.271 41.0625 434.271 37.4062C434.271 34.0156 434.974 31.1771 436.391 28.8906C437.802 26.6041 440.021 25.4583 443.052 25.4583C445.036 25.4583 446.781 26.0833 448.286 27.3437C450.729 29.4271 451.953 33.1614 451.953 38.0052C451.953 41.4635 451.188 44.2864 449.661 46.4635ZM462.161 3.89581C462.161 3.89581 451.661 2.77602 451.661 11.2083L451.656 22.3698C450.495 20.5052 448.984 19.0416 447.12 17.9948C445.26 16.9427 443.13 16.4114 440.724 16.4114C435.521 16.4114 431.37 18.3489 428.255 22.2239C425.141 26.0989 423.594 31.6823 423.594 38.4375C423.594 44.2969 425.172 49.0989 428.328 52.8437C431.49 56.5781 437.688 58.2187 443.188 58.2187C462.375 58.2187 462.151 41.7604 462.151 41.7604L462.161 3.89581Z" fill="#253E8B"/>
<path d="M307.333 95.3333C307.333 91.4062 306.568 88.3854 305.031 86.2656C303.5 84.1562 301.307 83.0885 298.443 83.0885C295.693 83.0885 293.542 84.1562 292.005 86.2656C290.583 88.1823 289.87 91.2135 289.87 95.3333C289.87 99.1771 290.63 102.036 292.167 103.953C293.693 106.073 295.896 107.13 298.75 107.13C301.406 107.13 303.5 106.073 305.031 103.953C306.568 101.839 307.333 98.9739 307.333 95.3333ZM289.87 123.531C289.87 124.937 289.359 126.151 288.328 127.156C287.312 128.167 286.089 128.672 284.656 128.672H279.453V92.4583C279.453 85.4166 281.823 81.0104 285.729 78.026C288.313 76.0573 292.156 74.1771 299.365 74.1771C304.229 74.1771 309.927 76.0677 313.005 79.8177C316.458 84.0364 317.896 88.7396 317.896 94.8802C317.896 101.234 316.365 106.359 313.307 110.302C310.245 114.135 306.307 116.042 301.505 116.042C298.953 116.042 296.708 115.589 294.771 114.687C292.719 113.677 291.094 112.115 289.87 109.995V123.531Z" fill="#00AEEF"/>
<path d="M369.786 95.3386C369.786 102.286 371.797 106.135 375.807 106.896C379.813 107.641 382.776 106.708 384.682 104.094C385.589 102.995 386.234 101.25 386.641 98.8906C387.036 96.5261 387.068 94.1823 386.714 91.8698C386.37 89.5469 385.536 87.4844 384.229 85.6719C382.932 83.8646 381.021 82.9531 378.516 82.9531C375.104 82.9531 372.802 84.2188 371.594 86.724C370.385 89.2448 369.786 92.1146 369.786 95.3386ZM386.943 112.703V110.146C385.141 112.969 382.698 114.719 379.641 115.427C376.583 116.13 373.547 115.88 370.547 114.667C367.531 113.464 364.948 111.224 362.792 107.953C360.635 104.672 359.562 100.37 359.562 95.0313C359.562 88.7969 360.99 83.7344 363.844 79.8594C366.703 75.9844 371.297 74.2136 377.615 74.0417C383.839 73.875 387.458 75.2865 391.005 77.9688C394.88 80.9115 397.172 85.4219 397.172 92.4688V113.771C397.188 120.547 392.458 133.109 377.615 132.047C368.417 131.38 363.313 127.604 360.464 119.057H371.448C372.25 120.464 373.474 121.542 375.135 122.292C376.781 123.057 378.448 123.255 380.089 122.901C381.745 122.547 383.25 121.563 384.615 119.958C385.964 118.349 386.74 115.927 386.943 112.703Z" fill="#00AEEF"/>
<path d="M345.38 99.5416C345.312 103.016 344.318 105.406 342.411 106.719C340.5 108.026 338.411 108.682 336.146 108.682C334.708 108.682 333.495 108.286 332.5 107.5C331.5 106.714 331 105.427 331 103.651C331 101.667 331.818 100.198 333.453 99.25C334.427 98.6927 336.01 98.2135 338.224 97.8333L340.589 97.3958C341.771 97.1719 342.698 96.9323 343.37 96.6771C344.057 96.4271 344.719 96.0989 345.38 95.6823V99.5416ZM350.646 76.9166C347.255 75.2031 343.38 74.3333 339.021 74.3333C332.307 74.3333 327.578 76.0833 324.818 79.5781C323.089 81.8125 322.115 84.6614 321.891 88.1406H331.917C332.161 86.6041 332.651 85.3906 333.391 84.4948C334.427 83.2812 336.182 82.6771 338.661 82.6771C340.891 82.6771 342.568 82.9791 343.708 83.6041C344.849 84.2239 345.427 85.3489 345.427 86.9739C345.427 88.3073 344.682 89.2916 343.187 89.9271C342.359 90.2916 340.974 90.5937 339.036 90.8385L335.484 91.2708C331.453 91.7812 328.385 92.6354 326.312 93.8229C322.516 96.0104 320.62 99.5416 320.62 104.422C320.62 108.182 321.797 111.094 324.156 113.146C326.51 115.193 329.505 116.062 333.12 116.229C355.771 117.24 355.521 104.281 355.729 101.589V86.6771C355.729 81.8958 354.036 78.6458 350.646 76.9166Z" fill="#00AEEF"/>
<path d="M428.307 104.203C426.688 106.359 424.365 107.432 421.339 107.432C418.307 107.432 415.974 106.359 414.349 104.203C412.708 102.057 411.896 99 411.896 95.0365C411.896 91.0729 412.708 88.0208 414.349 85.8802C415.974 83.7396 418.307 82.6771 421.339 82.6771C424.365 82.6771 426.688 83.7396 428.307 85.8802C429.927 88.0208 430.74 91.0729 430.74 95.0365C430.74 99 429.927 102.057 428.307 104.203ZM436.589 80.1979C433.245 76.0104 428.172 73.9219 421.365 73.9219C414.573 73.9219 409.495 76.0104 406.156 80.1979C402.812 84.3802 401.141 89.3229 401.141 95.0365C401.141 100.844 402.812 105.802 406.156 109.932C409.495 114.047 414.573 116.115 421.365 116.115C428.172 116.115 433.245 114.047 436.589 109.932C439.927 105.802 441.589 100.844 441.589 95.0365C441.589 89.3229 439.927 84.3802 436.589 80.1979Z" fill="#00AEEF"/>
</svg>
