<svg width="41" height="41" viewBox="0 0 41 41" fill="none" xmlns="http://www.w3.org/2000/svg">
<circle cx="20.5" cy="20.5" r="19.5" stroke="#84CFF2" stroke-opacity="0.7" stroke-width="2"/>
<path d="M18.8317 34.7273V7.45454H20.5788V34.7273H18.8317ZM24.2969 15.9134C24.1832 14.9048 23.7145 14.1236 22.8906 13.5696C22.0668 13.0085 21.0298 12.728 19.7798 12.728C18.8849 12.728 18.1108 12.87 17.4574 13.1541C16.804 13.4311 16.2962 13.8146 15.9339 14.3047C15.5788 14.7876 15.4013 15.3381 15.4013 15.956C15.4013 16.4744 15.522 16.9219 15.7635 17.2983C16.0121 17.6747 16.3352 17.9908 16.733 18.2464C17.1378 18.495 17.571 18.7045 18.0327 18.875C18.4943 19.0384 18.9382 19.1733 19.3643 19.2798L21.495 19.8338C22.1911 20.0043 22.9048 20.2351 23.6364 20.5263C24.3679 20.8175 25.0462 21.201 25.6712 21.6768C26.2962 22.1527 26.8004 22.7422 27.1839 23.4453C27.5746 24.1484 27.7699 24.9901 27.7699 25.9702C27.7699 27.206 27.4503 28.3033 26.8111 29.2621C26.179 30.2209 25.2592 30.9773 24.0518 31.5312C22.8516 32.0852 21.3991 32.3622 19.6946 32.3622C18.0611 32.3622 16.6477 32.103 15.4545 31.5845C14.2614 31.0661 13.3274 30.331 12.6527 29.3793C11.978 28.4205 11.6051 27.2841 11.5341 25.9702H14.8366C14.9006 26.7585 15.1563 27.4155 15.6037 27.9411C16.0582 28.4595 16.6371 28.8466 17.3402 29.1023C18.0504 29.3509 18.8281 29.4751 19.6733 29.4751C20.6037 29.4751 21.4311 29.3295 22.1555 29.0384C22.8871 28.7401 23.4624 28.3281 23.8814 27.8026C24.3004 27.2699 24.5099 26.6484 24.5099 25.9382C24.5099 25.2919 24.3253 24.7628 23.956 24.3509C23.5938 23.9389 23.1001 23.598 22.4751 23.3281C21.8572 23.0582 21.1577 22.8203 20.3764 22.6143L17.7983 21.9112C16.0511 21.4354 14.6662 20.7358 13.6435 19.8125C12.6278 18.8892 12.12 17.6676 12.12 16.1477C12.12 14.8906 12.4609 13.7933 13.1428 12.8558C13.8246 11.9183 14.7479 11.1903 15.9126 10.6719C17.0774 10.1463 18.3913 9.88352 19.8544 9.88352C21.3317 9.88352 22.6349 10.1428 23.7642 10.6612C24.9006 11.1797 25.7955 11.8935 26.4489 12.8026C27.1023 13.7045 27.4432 14.7415 27.4716 15.9134H24.2969Z" fill="#84CFF2" fill-opacity="0.7"/>
</svg>
